<?xml version="1.0" encoding="iso-8859-1"?>
<!-- Generator: Adobe Illustrator 19.0.0, SVG Export Plug-In . SVG Version: 6.00 Build 0)  -->
<svg version="1.1" id="Capa_1" xmlns="http://www.w3.org/2000/svg" xmlns:xlink="http://www.w3.org/1999/xlink" x="0px" y="0px"
	 viewBox="0 0 512 512" style="enable-background:new 0 0 512 512;" xml:space="preserve">
<g>
	<g>
		<circle cx="195" cy="106" r="15"/>
	</g>
</g>
<g>
	<g>
		<circle cx="256" cy="106" r="15"/>
	</g>
</g>
<g>
	<g>
		<circle cx="317" cy="106" r="15"/>
	</g>
</g>
<g>
	<g>
		<path d="M256,0c-72.643,0-136,46.093-136,106c0,57.897,61.01,105,136,105s136-47.103,136-105C392,46.093,328.646,0,256,0z
			 M256,181c-57.475,0-106-33.825-106-75c0-41.196,48.542-76,106-76s106,34.804,106,76C362,147.171,313.484,181,256,181z"/>
	</g>
</g>
<g>
	<g>
		<path d="M496.056,221.677C505.944,210.976,512,196.684,512,181c0-33.084-26.916-60-60-60c-33.084,0-60,26.916-60,60
			c0,24.148,14.348,44.996,34.959,54.504C423.797,241.656,422,248.62,422,256v15h-30c-24.813,0-45,20.187-45,45
			c0,5.258,0.914,10.305,2.578,15H162.42c1.665-4.695,2.58-9.742,2.58-15c0-24.813-20.187-45-45-45c-0.6,0-30,0-30,0v-15
			c0-7.38-1.797-14.344-4.959-20.496C105.652,225.996,120,205.148,120,181c0-33.084-26.916-60-60-60S0,147.916,0,181
			c0,15.684,6.056,29.976,15.944,40.677C6.201,229.938,0,242.255,0,256v120c0,24.813,20.187,45,45,45h60v46
			c0,24.813,20.187,45,45,45s45-20.187,45-45v-91c0-5.258-0.915-10.305-2.58-15H241v121h-15c-8.284,0-15,6.716-15,15s6.716,15,15,15
			h60c8.284,0,15-6.716,15-15s-6.716-15-15-15h-15V360.9h48.575C317.91,365.594,317,370.742,317,376v91c0,24.813,20.187,45,45,45
			s45-20.187,45-45v-46h60c24.813,0,45-20.187,45-45V256C512,242.255,505.799,229.938,496.056,221.677z M60,151
			c16.542,0,30,13.458,30,30s-13.458,30-30,30s-30-13.458-30-30S43.458,151,60,151z M165,467c0,8.271-6.729,15-15,15
			s-15-6.729-15-15v-61c0-8.284-6.716-15-15-15H45c-8.271,0-15-6.729-15-15V256c0-8.271,6.729-15,15-15s15,6.729,15,15v30
			c0,8.284,6.716,15,15,15c0,0,44.4,0,45,0c8.271,0,15,6.729,15,15s-6.729,15-15,15H75c-8.284,0-15,6.716-15,15s6.716,15,15,15
			c7.836,0,67.566,0,75,0c8.271,0,15,6.729,15,15V467z M482,376c0,8.271-6.729,15-15,15h-75c-8.284,0-15,6.716-15,15v61
			c0,8.271-6.729,15-15,15s-15-6.729-15-15v-91c0-8.271,6.729-15,15-15c26.489,0,59.476,0,75,0c8.284,0,15-6.716,15-15
			s-6.716-15-15-15h-45c-8.271,0-15-6.729-15-15s6.729-15,15-15h45c8.284,0,15-6.716,15-15v-30c0-8.271,6.729-15,15-15
			s15,6.729,15,15V376z M452,211c-16.542,0-30-13.458-30-30s13.458-30,30-30s30,13.458,30,30S468.542,211,452,211z"/>
	</g>
</g>
<g>
</g>
<g>
</g>
<g>
</g>
<g>
</g>
<g>
</g>
<g>
</g>
<g>
</g>
<g>
</g>
<g>
</g>
<g>
</g>
<g>
</g>
<g>
</g>
<g>
</g>
<g>
</g>
<g>
</g>
</svg>
