<?xml version="1.0" encoding="UTF-8" standalone="no"?>
<!DOCTYPE svg PUBLIC "-//W3C//DTD SVG 1.1//EN" "http://www.w3.org/Graphics/SVG/1.1/DTD/svg11.dtd">
<svg width="100%" height="100%" viewBox="0 0 512 512" version="1.1" xmlns="http://www.w3.org/2000/svg" xmlns:xlink="http://www.w3.org/1999/xlink" xml:space="preserve" xmlns:serif="http://www.serif.com/" style="fill-rule:evenodd;clip-rule:evenodd;stroke-linejoin:round;stroke-miterlimit:1.41421;">
    <path d="M494.586,164.516C489.889,160.633 382.863,74.566 359.335,55.859C337.231,38.191 299.437,0 256,0C212.795,0 175.364,37.717 152.665,55.859C128.202,75.309 21.595,161.054 17.515,164.408C6.433,173.521 0,187.138 0,201.485L0,464C0,490.51 21.49,512 48,512L464,512C490.51,512 512,490.51 512,464L512,201.509C512,187.207 505.608,173.629 494.586,164.516ZM464,458C464,461.292 461.292,464 458,464L54,464C50.708,464 48,461.292 48,458L48,204.347C48,202.534 48.816,200.821 50.226,199.682C66.096,186.868 159.019,112.128 182.59,93.389C200.755,78.88 232.398,48 256,48C279.693,48 311.857,79.369 329.41,93.389C352.983,112.13 445.913,186.882 461.776,199.705C463.183,200.843 464.001,202.559 464,204.368L464,458ZM432.009,270.296C436.258,275.455 435.474,283.091 430.264,287.277C401.289,310.56 370.99,334.874 359.335,344.14C336.636,362.283 299.205,400 256,400C212.548,400 174.713,361.763 152.665,344.14C141.386,335.173 110.921,310.727 81.738,287.275C76.528,283.088 75.745,275.453 79.993,270.294L95.251,251.766C99.429,246.693 106.908,245.923 112.03,250.04C140.648,273.041 170.596,297.075 182.59,306.611C200.143,320.631 232.307,352 256,352C279.602,352 311.246,321.12 329.41,306.611C341.404,297.076 371.354,273.041 399.973,250.043C405.095,245.927 412.574,246.697 416.751,251.77L432.009,270.296Z" style="fill:white;fill-rule:nonzero;"/>
</svg>
