<?xml version="1.0" encoding="iso-8859-1"?>
<!-- Generator: Adobe Illustrator 19.0.0, SVG Export Plug-In . SVG Version: 6.00 Build 0)  -->
<svg version="1.1" id="Capa_1" xmlns="http://www.w3.org/2000/svg" xmlns:xlink="http://www.w3.org/1999/xlink" x="0px" y="0px"
	 viewBox="0 0 512 512" style="enable-background:new 0 0 512 512;" xml:space="preserve">
<g>
	<g>
		<path d="M436,306c-5.52,0-10,4.48-10,10c0,5.52,4.48,10,10,10c5.52,0,10-4.48,10-10C446,310.48,441.52,306,436,306z"/>
	</g>
</g>
<g>
	<g>
		<path d="M256,306c-5.52,0-10,4.48-10,10c0,5.52,4.48,10,10,10s10-4.48,10-10C266,310.48,261.52,306,256,306z"/>
	</g>
</g>
<g>
	<g>
		<path d="M76,306c-5.52,0-10,4.48-10,10c0,5.52,4.48,10,10,10s10-4.48,10-10C86,310.48,81.52,306,76,306z"/>
	</g>
</g>
<g>
	<g>
		<path d="M316,366h-50v-10c0-5.522-4.478-10-10-10c-5.522,0-10,4.478-10,10v10h-50c-5.523,0-10,4.478-10,10v126
			c0,5.522,4.477,10,10,10h120c5.522,0,10-4.478,10-10V376C326,370.478,321.522,366,316,366z M306,492H206V386h100V492z"/>
	</g>
</g>
<g>
	<g>
		<path d="M502,366h-53v-10c0-5.522-4.478-10-10-10c-5.522,0-10,4.478-10,10v10h-53c-5.522,0-10,4.478-10,10v126
			c0,5.522,4.478,10,10,10h126c5.522,0,10-4.478,10-10V376C512,370.478,507.522,366,502,366z M492,492H386V386h106V492z"/>
	</g>
</g>
<g>
	<g>
		<path d="M136,366H83v-10c0-5.522-4.477-10-10-10s-10,4.478-10,10v10H10c-5.523,0-10,4.478-10,10v126c0,5.522,4.477,10,10,10h126
			c5.523,0,10-4.478,10-10V376C146,370.478,141.523,366,136,366z M126,492H20V386h106V492z"/>
	</g>
</g>
<g>
	<g>
		<path d="M93,406H53c-5.523,0-10,4.478-10,10c0,5.522,4.477,10,10,10h40c5.523,0,10-4.478,10-10C103,410.478,98.523,406,93,406z"/>
	</g>
</g>
<g>
	<g>
		<path d="M93,449H53c-5.523,0-10,4.478-10,10c0,5.522,4.477,10,10,10h40c5.523,0,10-4.478,10-10C103,453.478,98.523,449,93,449z"/>
	</g>
</g>
<g>
	<g>
		<path d="M276,406h-40c-5.523,0-10,4.478-10,10c0,5.522,4.477,10,10,10h40c5.522,0,10-4.478,10-10C286,410.478,281.522,406,276,406
			z"/>
	</g>
</g>
<g>
	<g>
		<path d="M276,449h-40c-5.523,0-10,4.478-10,10c0,5.522,4.477,10,10,10h40c5.522,0,10-4.478,10-10C286,453.478,281.522,449,276,449
			z"/>
	</g>
</g>
<g>
	<g>
		<path d="M459,406h-40c-5.522,0-10,4.478-10,10c0,5.522,4.478,10,10,10h40c5.522,0,10-4.478,10-10C469,410.478,464.522,406,459,406
			z"/>
	</g>
</g>
<g>
	<g>
		<path d="M459,449h-40c-5.522,0-10,4.478-10,10c0,5.522,4.478,10,10,10h40c5.522,0,10-4.478,10-10C469,453.478,464.522,449,459,449
			z"/>
	</g>
</g>
<g>
	<g>
		<path d="M416,243H266v-23h10c5.522,0,10-4.478,10-10v-26.175c6.911-2.771,13.277-6.407,19.037-10.873l22.562,13.028
			c2.298,1.326,5.026,1.688,7.589,0.999c2.562-0.687,4.746-2.362,6.072-4.659l20-34.641c2.762-4.782,1.123-10.898-3.659-13.66
			l-22.473-12.977C335.713,117.231,336,113.577,336,110s-0.287-7.231-0.872-11.043l22.473-12.977
			c4.782-2.762,6.421-8.878,3.659-13.66l-20-34.641c-1.326-2.297-3.511-3.973-6.072-4.659c-2.561-0.686-5.291-0.327-7.589,0.999
			l-22.562,13.028c-5.76-4.466-12.126-8.102-19.037-10.873V10c0-5.522-4.478-10-10-10h-40c-5.523,0-10,4.478-10,10v26.188
			c-6.861,2.772-13.284,6.442-19.019,10.866l-22.582-13.035c-4.782-2.759-10.898-1.122-13.659,3.661l-20,34.641
			c-2.761,4.782-1.123,10.898,3.66,13.66l22.472,12.977C176.287,102.767,176,106.422,176,110s0.287,7.233,0.872,11.043L154.4,134.02
			c-4.783,2.762-6.421,8.878-3.66,13.66l20,34.641c2.761,4.782,8.878,6.421,13.659,3.661l22.582-13.035
			c5.735,4.424,12.158,8.094,19.019,10.866V210c0,5.522,4.477,10,10,10h10v23H96c-16.542,0-30,13.458-30,30c0,5.522,4.477,10,10,10
			s10-4.478,10-10c0-5.514,4.486-10,10-10h150v10c0,5.522,4.478,10,10,10c5.522,0,10-4.478,10-10v-10h150c5.514,0,10,4.486,10,10
			c0,5.522,4.478,10,10,10c5.522,0,10-4.478,10-10C446,256.458,432.542,243,416,243z M246.001,200v-23.26
			c-0.001-4.412-2.893-8.302-7.117-9.575c-9.209-2.773-17.259-7.374-23.926-13.674c-3.212-3.035-8.039-3.602-11.867-1.393
			l-20.03,11.563l-10-17.322l20-11.549c3.831-2.212,5.753-6.678,4.727-10.98C196.584,118.768,196,114.25,196,110
			s0.584-8.768,1.787-13.81c1.026-4.303-0.896-8.769-4.727-10.98l-20-11.549l10-17.322l20.03,11.563
			c3.829,2.209,8.653,1.643,11.867-1.393c6.667-6.3,14.716-10.9,23.926-13.674c4.225-1.272,7.116-5.163,7.116-9.575V20h20v23.26
			c0,4.412,2.892,8.303,7.116,9.575c9.206,2.773,17.261,7.375,23.94,13.678c3.214,3.033,8.036,3.598,11.864,1.388l20.019-11.56
			l10,17.32l-20,11.549c-3.829,2.212-5.752,6.677-4.727,10.979C315.415,101.234,316,105.752,316,110s-0.585,8.766-1.787,13.812
			c-1.025,4.302,0.897,8.767,4.727,10.979l20,11.549l-10,17.32l-20.019-11.56c-3.827-2.21-8.65-1.646-11.864,1.388
			c-6.68,6.303-14.734,10.904-23.94,13.678c-4.225,1.272-7.116,5.163-7.116,9.575V200H246.001z"/>
	</g>
</g>
<g>
	<g>
		<path d="M256,70c-22.056,0-40,17.944-40,40c0,22.056,17.944,40,40,40c22.056,0,40-17.944,40-40C296,87.944,278.056,70,256,70z
			 M256,130c-11.028,0-20-8.972-20-20s8.972-20,20-20s20,8.972,20,20S267.028,130,256,130z"/>
	</g>
</g>
<g>
</g>
<g>
</g>
<g>
</g>
<g>
</g>
<g>
</g>
<g>
</g>
<g>
</g>
<g>
</g>
<g>
</g>
<g>
</g>
<g>
</g>
<g>
</g>
<g>
</g>
<g>
</g>
<g>
</g>
</svg>
