<?xml version="1.0" encoding="iso-8859-1"?>
<!-- Generator: Adobe Illustrator 19.0.0, SVG Export Plug-In . SVG Version: 6.00 Build 0)  -->
<svg version="1.1" id="Capa_1" xmlns="http://www.w3.org/2000/svg" xmlns:xlink="http://www.w3.org/1999/xlink" x="0px" y="0px"
	 viewBox="0 0 512.004 512.004" style="enable-background:new 0 0 512.004 512.004;" xml:space="preserve">
<g>
	<g>
		<path d="M509.075,196.87c-3.906-3.904-10.236-3.904-14.143,0l-72.244,72.245c-1.875,1.876-2.929,4.419-2.929,7.071v37.871
			c0,4.298-0.364,8.555-1.046,12.757l-72.564-72.565l-16.325-16.334c-10.385-10.391-24.749-15.984-39.433-15.294
			c-14.674,0.67-28.479,7.532-37.872,18.826l-49.677,59.723c-5.995,7.207-16.2,8.968-24.264,4.188
			c-8.195-4.859-11.521-15.117-7.734-23.86l37.658-86.967c8.747-20.2,28.622-33.252,50.634-33.252h45.716
			c2.652,0,5.195-1.054,7.071-2.929L453.089,17.187c3.905-3.905,3.905-10.237,0-14.143c-3.904-3.903-10.236-3.904-14.143,0
			L300.711,141.28h-41.574c-7.877,0-15.549,1.238-22.803,3.546c-14.317-12.211-32.305-18.885-51.329-18.885h-5.559L56.593,3.086
			c-3.906-3.904-10.236-3.904-14.143,0c-3.905,3.905-3.905,10.237,0,14.143l125.782,125.782c1.876,1.875,4.419,2.929,7.071,2.929
			h9.701c11.181,0,21.882,3.089,31.151,8.839c-11.222,7.82-20.334,18.706-26.007,31.806l-37.658,86.967
			c-7.777,17.96-0.946,39.03,15.89,49.011c6.25,3.706,13.125,5.499,19.927,5.498c11.223,0,22.244-4.882,29.912-14.1l49.677-59.723
			c5.892-7.083,14.205-11.216,23.408-11.637c9.21-0.428,17.859,2.937,24.373,9.454l6.909,6.913c0.017,0.017,0.031,0.036,0.048,0.053
			l9.188,9.189l0.18,0.179l0.001,0.001l83.521,83.52c6.43,6.431,6.43,16.893,0,23.322c-3.114,3.114-7.256,4.83-11.66,4.83
			s-8.546-1.716-11.66-4.831l-40.753-40.753l-24.512-24.512c-3.906-3.904-10.236-3.904-14.143,0c-3.905,3.905-3.905,10.237,0,14.143
			l24.508,24.508c0.001,0.001,0.002,0.003,0.003,0.004l40.753,40.752c6.43,6.431,6.43,16.893,0,23.322
			c-3.114,3.114-7.256,4.829-11.66,4.829s-8.546-1.715-11.66-4.83l-40.753-40.753l-24.512-24.512
			c-3.906-3.904-10.236-3.904-14.143,0c-3.905,3.905-3.905,10.237,0,14.143l24.508,24.508c0.001,0.001,0.002,0.003,0.003,0.004
			l40.753,40.752c6.43,6.431,6.43,16.893,0,23.322c-3.114,3.114-7.256,4.829-11.66,4.829c-3.135,0-6.128-0.884-8.721-2.508
			c-0.781-0.956-1.613-1.879-2.498-2.764l-19.111-19.111c-0.859-0.858-1.839-1.517-2.88-1.998l-43.714-43.714
			c-3.906-3.904-10.236-3.904-14.143,0c-3.905,3.905-3.905,10.237,0,14.143l65.265,65.264c0.885,0.885,1.808,1.717,2.764,2.498
			c1.624,2.593,2.508,5.587,2.508,8.722c0,4.404-1.716,8.546-4.831,11.66c-6.43,6.43-16.891,6.43-23.32,0l-10.244-10.244
			c10.286-14.254,9.024-34.317-3.796-47.138c-6.893-6.893-16.057-10.688-25.803-10.688c-0.339,0-0.676,0.016-1.014,0.025
			c0.262-9.674-3.28-19.432-10.646-26.799c-6.893-6.893-16.057-10.688-25.803-10.688c-0.339,0-0.676,0.016-1.014,0.025
			c0.262-9.674-3.28-19.432-10.646-26.799c-6.893-6.893-16.057-10.688-25.803-10.688c-0.339,0-0.676,0.016-1.014,0.025
			c0.262-9.674-3.28-19.432-10.646-26.799c-6.893-6.893-16.057-10.688-25.803-10.688c-9.747,0-18.911,3.797-25.803,10.688
			l-7.587,7.586C78.864,307,69.876,284.432,68.964,260.433l48.679-48.678c3.905-3.905,3.905-10.237,0-14.143
			c-3.905-3.903-10.235-3.904-14.143,0l-44.622,44.621l-41.806-41.805c-3.906-3.904-10.236-3.904-14.143,0
			c-3.905,3.905-3.905,10.237,0,14.143l46.019,46.019c0.984,29.736,12.373,57.665,32.423,79.585
			c-3.039,5.395-4.666,11.503-4.666,17.864c0,9.747,3.796,18.91,10.688,25.803h0.001c7.113,7.113,16.458,10.67,25.802,10.67
			c0.333,0,0.665-0.015,0.997-0.024c-0.009,0.338-0.024,0.675-0.024,1.014c0,9.747,3.796,18.91,10.688,25.803h0.001
			c7.113,7.113,16.458,10.67,25.802,10.67c0.333,0,0.665-0.015,0.997-0.024c-0.009,0.338-0.024,0.675-0.024,1.014
			c0,9.747,3.796,18.91,10.688,25.803h0.001c7.113,7.113,16.458,10.67,25.802,10.67c0.333,0,0.665-0.015,0.997-0.024
			c-0.009,0.338-0.024,0.675-0.024,1.014c0,9.747,3.796,18.91,10.688,25.803h0.001c7.113,7.113,16.458,10.67,25.802,10.67
			c9.345,0,18.688-3.557,25.803-10.67l4.815-4.815l9.91,9.909c7.113,7.113,16.458,10.67,25.802,10.67
			c9.345,0,18.688-3.557,25.802-10.67c6.893-6.892,10.689-16.056,10.689-25.803c0-0.182-0.011-0.363-0.013-0.544
			c0.181,0.002,0.362,0.013,0.543,0.013c9.747,0,18.911-3.796,25.803-10.688c7.367-7.367,10.908-17.126,10.646-26.8
			c0.338,0.009,0.675,0.025,1.014,0.025c9.747,0,18.911-3.796,25.803-10.688c7.366-7.367,10.908-17.125,10.646-26.799
			c0.338,0.009,0.675,0.025,1.014,0.025c9.747,0,18.911-3.797,25.803-10.688c12.153-12.153,13.915-30.813,5.306-44.865
			c3.168-9.844,4.787-20.06,4.787-30.45v-33.734h-0.001l69.315-69.316C512.98,207.108,512.98,200.776,509.075,196.87z
			 M101.538,369.696c-6.429-6.43-6.429-16.891,0.001-23.32l14.826-14.826c3.114-3.114,7.255-4.83,11.66-4.83
			c4.404,0,8.546,1.716,11.66,4.831c6.43,6.429,6.43,16.891,0,23.32l-14.826,14.825
			C118.431,376.124,107.971,376.126,101.538,369.696z M139.001,407.158c-6.429-6.43-6.429-16.891,0.001-23.32l14.826-14.826
			c3.114-3.114,7.255-4.83,11.66-4.83c4.404,0,8.546,1.716,11.66,4.831c6.43,6.429,6.43,16.891,0,23.32l-14.826,14.825
			C155.894,413.587,145.434,413.589,139.001,407.158z M199.785,444.621c-6.428,6.429-16.888,6.431-23.321,0
			c-6.429-6.43-6.429-16.891,0.001-23.32l14.826-14.826c3.114-3.114,7.255-4.83,11.66-4.83c4.404,0,8.546,1.716,11.66,4.831
			c6.43,6.429,6.43,16.891,0,23.32L199.785,444.621z M252.074,467.259l-14.826,14.825c-6.429,6.43-16.889,6.43-23.321,0h0.001
			c-6.43-6.43-6.43-16.891,0-23.32l14.826-14.826c3.114-3.114,7.255-4.83,11.66-4.83c4.404,0,8.546,1.716,11.66,4.831
			C258.504,450.368,258.504,460.83,252.074,467.259z"/>
	</g>
</g>
<g>
	<g>
		<path d="M256.004,34.333c-5.522,0-10,4.478-10,10v46.18c0,5.522,4.478,10,10,10c5.522,0,10-4.478,10-10v-46.18
			C266.004,38.811,261.526,34.333,256.004,34.333z"/>
	</g>
</g>
<g>
	<g>
		<path d="M263.073,2.938c-1.859-1.86-4.439-2.93-7.069-2.93c-2.63,0-5.21,1.069-7.07,2.93c-1.86,1.861-2.93,4.44-2.93,7.07
			c0,2.63,1.069,5.21,2.93,7.069c1.86,1.861,4.44,2.931,7.07,2.931c2.63,0,5.21-1.07,7.069-2.931
			c1.86-1.859,2.931-4.439,2.931-7.069C266.004,7.378,264.934,4.798,263.073,2.938z"/>
	</g>
</g>
<g>
	<g>
		<path d="M326.791,66.652c-3.904-3.903-10.234-3.905-14.143,0l-19.044,19.045c-3.905,3.905-3.905,10.237,0,14.143
			c1.953,1.951,4.512,2.928,7.071,2.928c2.559,0,5.118-0.977,7.071-2.929l19.045-19.044
			C330.696,76.89,330.696,70.558,326.791,66.652z"/>
	</g>
</g>
<g>
	<g>
		<path d="M217.462,84.754l-18.103-18.102c-3.906-3.904-10.238-3.904-14.143,0c-3.905,3.905-3.905,10.237,0,14.143l18.104,18.102
			c1.953,1.952,4.512,2.929,7.071,2.929c2.559,0,5.119-0.977,7.071-2.929C221.367,94.992,221.367,88.66,217.462,84.754z"/>
	</g>
</g>
<g>
	<g>
		<path d="M143.073,172.188c-1.869-1.87-4.439-2.93-7.069-2.93c-2.641,0-5.21,1.06-7.08,2.93c-1.86,1.851-2.92,4.43-2.92,7.07
			c0,2.63,1.06,5.21,2.92,7.069c1.87,1.861,4.45,2.931,7.08,2.931s5.2-1.07,7.069-2.931c1.86-1.859,2.931-4.439,2.931-7.069
			C146.004,176.617,144.934,174.048,143.073,172.188z"/>
	</g>
</g>
<g>
</g>
<g>
</g>
<g>
</g>
<g>
</g>
<g>
</g>
<g>
</g>
<g>
</g>
<g>
</g>
<g>
</g>
<g>
</g>
<g>
</g>
<g>
</g>
<g>
</g>
<g>
</g>
<g>
</g>
</svg>
